<svg viewBox="0 0 16 16" xmlns="http://www.w3.org/2000/svg"><path d="M14.447 5.55l-1.153 1.153a.3.3 0 0 1-.425 0l-2.775-2.775a.3.3 0 0 1 0-.425l1.153-1.152a1.203 1.203 0 0 1 1.697 0l1.503 1.502c.47.468.47 1.228 0 1.698zM9.104 4.494L2.54 11.058l-.53 3.038a.6.6 0 0 0 .695.695l3.038-.533 6.565-6.565a.3.3 0 0 0 0-.425L9.532 4.493a.303.303 0 0 0-.428 0zm-4.002 6.003a.349.349 0 0 1 0-.495l3.85-3.85a.349.349 0 0 1 .495 0 .349.349 0 0 1 0 .495l-3.85 3.85a.349.349 0 0 1-.495 0zm-.903 2.102h1.2v.908l-1.612.282-.778-.777.283-1.613h.907v1.2z"></path></svg>