<svg viewBox="0 0 16 16" xmlns="http://www.w3.org/2000/svg"><path d="M2.953 11.152c-.754.753-.22 2.048.848 2.048H6.6a1.6 1.6 0 1 0 3.2 0h.817l-6.42-5.666c-.056 2.427-.712 3.085-1.244 3.618zM7.6 13.2c0 .33.27.6.6.6a.2.2 0 0 1 .141.059A.2.2 0 0 1 8.4 14a.2.2 0 0 1-.2.2c-.551 0-1-.449-1-1h.4zm7.647 1.093l-.269.302a.614.614 0 0 1-.86.054L1.205 3.359a.6.6 0 0 1-.053-.852l.269-.302a.614.614 0 0 1 .86-.054L5.129 4.64a3.995 3.995 0 0 1 2.414-1.385A.796.796 0 0 1 7.4 2.8a.8.8 0 1 1 1.458.454A4 4 0 0 1 12.2 7.2c0 2.703.69 3.395 1.247 3.951.304.304.398.695.333 1.054l1.414 1.235a.6.6 0 0 1 .053.853z"></path></svg>